<svg xmlns="http://www.w3.org/2000/svg" viewBox="0 0 512 512" width="512" height="512">
<rect width="512" height="512" fill="#e8b321"/>
<g transform="translate(256,256) scale(0.82) translate(-256,-256)">
<g fill="#ffffff"><g transform="translate(93.96,370.44) scale(0.33172,-0.33172)"><path d="M408 -10Q374 73 340.5 155.0Q307 237 273 319Q265 338 252.5 372.5Q240 407 226.5 452.0Q213 497 202 545Q204 489 205.0 439.5Q206 390 205 345Q205 323 205.0 300.0Q205 277 204.5 254.5Q204 232 204.0 209.5Q204 187 204 164Q204 137 202.5 112.0Q201 87 199 74Q216 76 240.5 76.5Q265 77 275 77V0H47V66Q70 67 85.5 72.0Q101 77 109.5 95.0Q118 113 118 153L124 536Q125 563 126.0 588.0Q127 613 128 626Q112 625 88.0 624.5Q64 624 53 623V700H274L425 313Q434 290 445.0 259.5Q456 229 466.0 200.5Q476 172 481 155H482Q495 190 506.0 223.0Q517 256 529 287Q568 391 606.5 494.0Q645 597 684 700H915V634Q893 633 876.0 628.0Q859 623 850.5 605.5Q842 588 843 547L858 164Q860 137 858.0 112.0Q856 87 854 74Q871 76 895.5 76.5Q920 77 930 77V0H652V66Q675 67 691.5 72.0Q708 77 716.5 95.0Q725 113 723 153L715 365Q715 377 713.0 406.5Q711 436 709.5 471.5Q708 507 707 538Q704 531 701.0 524.5Q698 518 696 511L501 -10Z"/></g></g>
</g>
</svg>
